<?xml version="1.0" encoding="UTF-8"?>
<!DOCTYPE svg PUBLIC "-//W3C//DTD SVG 1.1//EN" "http://www.w3.org/Graphics/SVG/1.1/DTD/svg11.dtd">
<svg version="1.1" xmlns="http://www.w3.org/2000/svg" xmlns:xlink="http://www.w3.org/1999/xlink" x="0" y="0" width="380" height="622" viewBox="0, 0, 380, 622">
  <g id="Layer_1">
    <path d="M108.841,351.121 C107.537,350.826 106.223,350.585 104.91,350.343 C103.593,350.118 102.276,349.892 100.949,349.723 C99.624,349.547 98.296,349.381 96.954,349.295 C98.241,349.684 99.544,349.99 100.848,350.285 C102.152,350.587 103.466,350.831 104.781,351.072 C106.097,351.297 107.416,351.519 108.745,351.68 C110.06,351.836 111.432,352.04 112.719,352.027 C112.127,351.903 111.435,351.721 110.798,351.56 L108.841,351.121 z M371.174,574.439 C370.671,570.657 369.285,566.992 367.415,563.639 C365.554,560.27 363.203,557.183 360.554,554.394 C357.882,551.628 354.901,549.148 351.636,547.119 C348.384,545.078 344.83,543.495 341.128,542.588 C344.649,544.041 347.929,545.927 350.999,548.081 C354.055,550.255 356.903,552.709 359.482,555.422 C362.077,558.115 364.406,561.069 366.419,564.229 C368.403,567.402 370.104,570.782 371.174,574.439 M365.362,595.924 C365.124,593.447 363.848,591.164 362.333,589.203 C360.781,587.243 358.938,585.537 357.002,583.986 C353.144,580.843 348.809,578.402 344.854,575.584 C342.865,574.17 340.903,572.721 339.048,571.148 C337.177,569.599 335.407,567.934 333.821,566.115 C332.242,564.297 330.862,562.296 329.939,560.07 C329.478,558.959 329.12,557.798 328.894,556.6 C328.664,555.403 328.536,554.18 328.403,552.955 C328.303,555.407 328.457,557.926 329.232,560.331 C330.022,562.724 331.347,564.917 332.905,566.875 C336.051,570.794 339.971,573.936 344.009,576.788 C346.037,578.207 348.146,579.531 350.227,580.809 C352.305,582.11 354.354,583.439 356.323,584.872 C358.279,586.315 360.172,587.856 361.809,589.647 C363.452,591.418 364.81,593.513 365.362,595.924 M322.433,550.837 L340.793,539.138 C340.563,538.773 340.309,538.361 340.028,537.907 C338.901,536.082 337.357,533.58 335.285,530.861 C332.661,527.42 329.518,523.41 326.189,519.165 C319.803,511.021 312.842,502.138 308.251,495.589 C307.877,495.904 307.499,496.215 307.112,496.51 C307.843,497.623 308.589,498.727 309.347,499.823 C310.029,500.804 310.74,501.765 311.442,502.733 C311.944,502.525 312.451,502.324 312.971,502.144 C312.569,502.495 312.156,502.823 311.739,503.148 C313.39,505.415 315.065,507.663 316.766,509.894 C319.298,513.211 321.882,516.49 324.475,519.763 L328.365,524.67 C329.649,526.316 330.979,527.93 332.152,529.659 C330.938,527.961 329.571,526.379 328.249,524.765 L324.242,519.952 C321.571,516.742 318.908,513.523 316.295,510.264 C314.539,508.073 312.808,505.86 311.1,503.629 C309.765,504.614 308.37,505.497 306.949,506.335 C305.555,507.131 304.136,507.883 302.663,508.544 C304.03,511.148 305.347,513.777 306.649,516.41 C308.5,520.157 310.293,523.93 312.075,527.706 L314.746,533.372 C315.65,535.252 316.506,537.159 317.534,538.976 C316.463,537.182 315.561,535.295 314.611,533.436 L311.806,527.836 C309.934,524.105 308.053,520.378 306.115,516.682 C304.741,514.065 303.337,511.463 301.9,508.882 C301.384,509.097 300.861,509.305 300.327,509.491 C300.755,509.117 301.196,508.763 301.642,508.42 C301.135,507.514 300.642,506.6 300.12,505.705 C299.402,504.481 298.673,503.266 297.925,502.065 C297.461,502.276 296.985,502.47 296.509,502.66 C300.272,509.213 305.07,518.743 309.765,528.073 C312.422,533.355 314.933,538.345 317.113,542.503 C318.279,544.535 319.839,546.894 321.093,548.791 C321.606,549.568 322.069,550.269 322.433,550.837 M296.439,502.539 C296.823,502.205 297.209,501.874 297.606,501.561 C297.358,501.17 297.12,500.771 296.864,500.386 C295.841,498.778 294.715,497.247 293.505,495.835 L292.564,496.434 C293.646,497.867 294.964,499.979 296.439,502.539 M290.893,496.079 L291.786,495.508 C289.977,492.624 288.2,489.725 286.403,486.833 C282.605,486.388 276.718,487.462 273.236,489.925 C272.201,490.657 271.08,491.615 270.071,492.819 C271.831,494.857 272.417,496.846 271.825,498.759 C273.426,498.465 275.027,498.172 276.636,497.887 C279.282,497.418 281.946,496.977 284.652,496.654 C286.935,496.395 288.691,496.047 290.893,496.079 M267.024,499.623 C268.334,499.392 269.646,499.157 270.958,498.918 C271.666,497.163 271.212,495.349 269.591,493.426 C268.364,495.059 267.373,497.105 267.024,499.623 M265.521,499.887 C266.007,495.473 268.405,491.525 272.379,488.714 C276.314,485.93 281.429,484.551 285.331,485.116 C283.362,481.97 281.353,478.833 279.229,475.73 C275.219,476.731 271.072,476.964 268.14,476.964 C265.875,476.964 264.336,476.828 264.146,476.812 L215.9,448.81 L192.109,435.006 C184.197,430.355 176.267,425.803 168.459,420.89 C164.595,418.266 161.13,415.228 157.715,412.149 C154.313,409.054 151.012,405.863 147.752,402.634 C144.492,399.404 141.28,396.129 138.069,392.86 C136.461,391.235 134.86,389.576 133.211,388.034 C133.014,387.846 132.789,387.659 132.56,387.411 C132.346,387.176 132.173,386.938 131.998,386.698 C131.654,386.218 131.347,385.726 131.043,385.232 C130.443,384.243 129.88,383.24 129.328,382.233 C124.969,374.151 120.912,365.938 116.41,357.954 C114.166,353.962 111.84,350.012 109.297,346.202 C108.02,344.303 106.695,342.431 105.253,340.652 C103.809,338.879 102.27,337.162 100.456,335.755 C102.289,337.137 103.856,338.837 105.326,340.592 C106.795,342.355 108.147,344.21 109.453,346.096 C112.054,349.877 114.436,353.8 116.738,357.766 C121.351,365.695 125.532,373.872 129.988,381.866 C130.55,382.86 131.124,383.848 131.725,384.81 C132.352,385.77 132.913,386.722 133.774,387.399 C135.494,388.964 137.1,390.584 138.737,392.193 C141.994,395.421 145.246,398.646 148.543,401.825 C151.84,405.002 155.175,408.138 158.598,411.166 C162.024,414.176 165.521,417.146 169.28,419.625 C177.056,424.373 185.09,428.847 193.044,433.381 L217.008,446.865 L264.536,473.356 C265.934,473.396 268.384,473.407 271.195,473.186 C263.739,471.113 256.238,466.763 253.815,462.783 C253.207,462.001 252.651,461.173 252.176,460.297 C251.397,458.869 250.838,457.305 250.603,455.674 C250.367,454.051 250.474,452.328 251.113,450.775 C251.788,449.237 252.718,447.906 253.841,446.698 C254.968,445.507 256.334,444.518 257.857,443.906 C259.376,443.287 260.992,442.978 262.599,442.865 C263.058,442.839 263.515,442.828 263.971,442.823 C264.424,442.598 264.878,442.403 265.328,442.258 L265.484,442.208 L265.646,442.226 C281.138,444.116 289.665,449.331 292.347,453.675 C292.372,451.346 291.931,449.157 290.912,447.388 C287.009,440.615 276.14,428.584 276.03,428.464 L274.148,426.385 L274.254,426.346 C270.024,421.542 262.161,413.769 259.312,411.571 C255.976,409.028 252.554,406.61 248.992,404.5 C247.21,403.453 245.379,402.508 243.52,401.707 C241.666,400.903 239.761,400.259 237.878,399.961 L237.168,399.849 L236.736,399.194 C235.693,397.611 234.229,396.009 232.794,394.474 C231.332,392.937 229.841,391.401 228.32,389.888 C225.28,386.859 222.165,383.88 219.05,380.889 C215.959,377.872 212.863,374.848 209.817,371.744 C208.3,370.187 206.777,368.625 205.325,366.971 C204.598,366.143 203.878,365.305 203.181,364.42 C202.483,363.53 201.801,362.633 201.18,361.524 C201.026,361.241 200.876,360.947 200.738,360.593 C200.671,360.421 200.604,360.233 200.55,360.01 L200.451,359.635 C200.359,359.259 200.179,358.776 199.989,358.319 C199.608,357.391 199.156,356.439 198.679,355.499 C197.725,353.614 196.717,351.724 195.663,349.859 C193.557,346.126 191.327,342.445 189.079,338.773 C186.808,335.116 184.495,331.48 182.108,327.893 C179.696,324.323 177.309,320.726 174.493,317.445 C177.692,320.373 180.459,323.744 183.166,327.121 C185.86,330.517 188.449,333.995 190.94,337.544 C192.019,339.058 193.064,340.596 194.101,342.14 C186.643,328.838 179.128,314.88 171.579,301.124 L171.433,301.638 C160.467,298.506 129.412,291.505 117.554,296.677 C111.525,299.305 110.081,302.218 108.409,305.591 C108.268,305.876 108.125,306.164 107.979,306.453 C107.976,306.868 107.988,307.298 108.015,307.735 C108.087,308.795 108.216,309.879 108.369,310.962 C108.678,313.132 109.077,315.308 109.513,317.479 C109.949,319.649 110.426,321.817 110.937,323.978 L111.739,327.21 L112.174,328.816 C112.343,329.34 112.447,329.909 112.719,330.376 C112.391,329.934 112.226,329.381 111.999,328.877 L111.386,327.323 L110.227,324.188 C109.475,322.09 108.756,319.979 108.075,317.852 C107.396,315.723 106.75,313.582 106.187,311.397 C106.07,310.943 105.961,310.487 105.854,310.028 C103.711,312.975 100.222,315.966 92.96,318.607 C87.605,320.555 54.354,340.175 52.176,346.393 C50.579,350.96 51.746,359.485 53.414,366.205 C54.801,366.971 56.167,367.753 57.518,368.567 C59.388,369.704 61.224,370.896 63.016,372.149 C64.808,373.4 66.538,374.753 68.166,376.214 C69.775,377.676 71.343,379.29 72.285,381.261 C71.127,379.417 69.431,378.038 67.698,376.788 C65.949,375.55 64.12,374.428 62.231,373.409 C60.344,372.388 58.423,371.43 56.473,370.534 C55.768,370.21 55.054,369.899 54.34,369.589 C54.727,370.872 55.118,372.037 55.492,372.989 C56.986,376.807 54.032,383.48 48.987,394.016 C46.611,398.977 44.155,404.107 43.323,407.438 C42.221,411.847 43.822,417.965 45.638,423.778 C47.377,424.713 49.062,425.676 50.737,426.685 C52.605,427.821 54.441,429.014 56.233,430.268 C58.026,431.517 59.755,432.871 61.384,434.331 C62.993,435.794 64.56,437.408 65.502,439.377 C64.344,437.535 62.649,436.155 60.917,434.907 C59.168,433.668 57.339,432.545 55.449,431.526 C53.562,430.506 51.641,429.548 49.692,428.652 C48.729,428.211 47.755,427.779 46.779,427.361 C47.958,431.036 49.033,434.489 49.306,437.211 C49.578,439.938 51.539,444.714 53.614,449.77 C56.989,457.992 60.815,467.311 60.815,474.934 C60.815,487.779 74.71,491.354 77.496,491.941 C79.375,492.337 83.305,493.377 88.745,494.818 C101.677,498.242 122.009,503.623 137.52,506.334 C135.824,505.624 134.131,504.907 132.452,504.156 C128.446,502.336 124.453,500.476 120.688,498.039 C119.761,497.391 118.816,496.796 117.959,495.973 L117.305,495.394 L116.732,494.831 C116.347,494.455 115.977,494.073 115.581,493.705 C113.996,492.222 112.371,490.772 110.735,489.33 C104.162,483.587 97.449,477.984 90.711,472.418 C87.078,469.433 83.447,466.443 79.793,463.481 C77.951,463.66 76.121,463.66 74.293,463.631 C73.336,463.603 72.381,463.576 71.428,463.52 L69.998,463.444 C69.521,463.421 69.042,463.363 68.575,463.462 C69.001,463.198 69.511,463.18 69.981,463.082 C70.461,463.017 70.943,462.971 71.424,462.942 C72.386,462.88 73.349,462.875 74.309,462.889 C76.109,462.942 77.907,463.074 79.694,463.402 C76.588,460.888 73.467,458.39 70.306,455.948 C77.373,461.097 84.264,466.482 91.176,471.839 C98.073,477.216 104.941,482.629 111.698,488.201 C113.38,489.603 115.059,491.015 116.709,492.474 C117.123,492.839 117.526,493.23 117.934,493.606 L118.545,494.175 L119.137,494.662 C119.878,495.345 120.8,495.894 121.683,496.473 C125.327,498.692 129.338,500.435 133.335,502.113 C137.285,503.747 141.294,505.257 145.326,506.703 C145.28,506.536 145.241,506.369 145.209,506.203 C145.051,505.519 145.003,504.836 144.932,504.145 C144.866,502.778 144.869,501.409 144.98,500.059 C145.196,497.356 145.657,494.695 146.304,492.088 C146.949,489.48 147.769,486.921 148.754,484.422 C149.771,481.936 150.92,479.496 152.413,477.216 C152.08,479.923 151.53,482.517 150.977,485.105 C150.419,487.69 149.813,490.246 149.185,492.796 L147.286,500.424 C146.977,501.696 146.647,502.963 146.385,504.244 C146.247,504.881 146.118,505.524 146.031,506.166 C145.991,506.421 145.964,506.671 145.947,506.922 C147.856,507.603 149.774,508.268 151.698,508.915 L152.92,509.322 C161.541,511.268 175.974,514.178 187.116,514.655 C200.442,515.227 218.647,514.911 228.427,514.742 C231.359,514.692 233.582,514.653 234.768,514.653 C236.642,514.653 241.18,510.869 244.495,508.108 C246.302,506.601 247.87,505.323 249.264,504.302 C247.842,504.333 246.415,504.322 244.982,504.258 C239.467,503.93 234.189,502.74 228.957,501.458 C218.512,498.821 208.325,495.436 198.182,491.985 L182.997,486.78 C180.479,485.924 177.906,485.174 175.358,484.284 C172.815,483.412 170.287,482.49 167.793,481.481 C157.819,477.481 148.179,472.415 139.759,465.65 C135.595,462.222 131.691,458.569 127.728,454.966 L115.938,444.056 L92.412,422.19 C87.556,417.715 82.701,413.239 77.795,408.82 C76.456,408.631 75.129,408.438 73.799,408.278 C72.417,408.121 71.039,407.955 69.655,407.829 C68.273,407.688 66.889,407.58 65.505,407.477 C64.813,407.426 64.119,407.389 63.425,407.381 C63.079,407.369 62.732,407.363 62.386,407.377 C62.214,407.386 62.043,407.4 61.872,407.424 C61.715,407.46 61.508,407.466 61.434,407.629 C61.473,407.443 61.693,407.385 61.845,407.315 C62.015,407.261 62.188,407.22 62.361,407.181 C62.71,407.111 63.06,407.061 63.41,407.017 C64.113,406.952 64.816,406.924 65.519,406.907 C66.926,406.877 68.329,406.965 69.728,407.091 C71.123,407.237 72.516,407.425 73.89,407.717 C75.192,407.987 76.485,408.315 77.737,408.769 C74.708,406.042 71.663,403.331 68.575,400.67 C76.77,407.56 84.711,414.747 92.669,421.909 L116.453,443.496 L128.367,454.26 C132.364,457.808 136.328,461.429 140.472,464.757 C148.847,471.324 158.433,476.221 168.352,480.062 C170.831,481.032 173.345,481.915 175.874,482.749 C178.392,483.595 180.969,484.314 183.53,485.149 L198.788,490.18 C208.949,493.505 219.146,496.754 229.499,499.237 C234.664,500.443 239.906,501.54 245.096,501.783 C250.313,501.966 255.608,501.407 260.853,500.638 C262.41,500.41 263.966,500.153 265.521,499.887 M199.33,322.123 L216.327,349.546 C222.085,358.632 227.756,367.769 233.592,376.808 C228.333,367.422 222.909,358.136 217.573,348.797 L201.286,320.946 C190.422,302.383 179.36,283.938 168.294,265.495 C157.168,247.09 146.04,228.685 134.713,210.401 L117.717,182.977 C111.96,173.89 106.289,164.754 100.456,155.714 C105.717,165.098 111.141,174.385 116.479,183.723 L132.767,211.573 C143.629,230.138 154.69,248.582 165.754,267.025 C176.877,285.432 188.005,303.837 199.33,322.123 M196.271,303.583 C202.459,313.193 208.653,322.779 214.744,332.251 L224.76,348.104 C225.429,349.178 226.091,350.255 226.758,351.33 C226.558,349.126 226.465,346.927 226.476,344.736 C226.488,340.792 226.77,336.871 227.302,332.989 C227.567,331.05 227.897,329.118 228.323,327.209 C228.536,326.255 228.778,325.306 229.063,324.372 C229.347,323.438 229.672,322.506 230.154,321.658 C229.756,322.547 229.525,323.492 229.332,324.44 C229.14,325.388 228.991,326.346 228.872,327.305 C228.632,329.225 228.489,331.157 228.409,333.088 C228.252,336.95 228.346,340.816 228.699,344.638 C229.044,348.458 229.681,352.243 230.721,355.839 C231.281,357.734 231.992,359.604 232.881,361.286 C233.302,361.978 233.727,362.67 234.147,363.362 C234.402,363.72 234.67,364.061 234.948,364.385 C235.108,363.869 235.272,363.356 235.451,362.849 C237.195,357.971 239.671,353.475 242.567,349.324 C245.476,345.179 248.791,341.338 252.536,337.97 C254.411,336.293 256.399,334.736 258.53,333.404 C260.658,332.081 262.945,330.965 265.372,330.376 C262.996,331.144 260.836,332.411 258.843,333.864 C256.85,335.327 255.018,336.996 253.307,338.771 C249.895,342.335 246.946,346.32 244.438,350.529 C241.941,354.739 239.906,359.227 238.637,363.847 C238.164,365.586 237.81,367.369 237.626,369.136 C237.802,369.428 237.979,369.72 238.154,370.013 C240.451,379.66 242.748,389.305 245.044,398.952 C246.952,399.87 248.756,400.941 250.501,402.055 C254.118,404.417 257.505,407.047 260.709,409.86 C263.935,412.65 266.995,415.608 269.943,418.664 C272.11,420.922 274.226,423.231 276.234,425.626 L276.783,425.426 C278.181,424.917 281.703,423.57 283.678,422.577 C281.103,422.526 273.341,418.586 267.843,414.437 C263.684,411.301 258.771,406.583 258.877,401.868 C256.982,394.288 258.725,381.655 266.475,375.48 C266.75,375.154 267.025,374.829 267.318,374.517 C268.905,372.859 270.784,371.437 272.923,370.513 C275.053,369.57 277.432,369.228 279.749,369.39 C282.072,369.55 284.339,370.182 286.464,371.076 C287.53,371.485 288.604,372.085 289.492,372.864 C290.387,373.646 291.115,374.603 291.666,375.642 C292.758,377.736 293.194,380.082 293.27,382.381 C293.377,386.522 292.62,390.611 291.369,394.508 C291.228,395.316 291.077,396.162 290.919,397.045 C296.318,382.846 306.028,363.369 306.16,363.104 C308.054,359.318 313.815,347.794 306.31,337.218 C297.332,324.568 265.243,297.354 251.974,302.28 C238.758,307.189 208.565,305.903 196.271,303.583 M284.631,377.931 C281.648,375.864 277.733,374.152 274.05,374.152 C273.298,374.152 272.559,374.236 271.836,374.388 C272.541,376.013 273.667,377.344 274.931,378.491 C276.39,379.79 278.04,380.882 279.796,381.761 C281.54,382.663 283.394,383.372 285.298,383.823 C286.25,384.033 287.224,384.202 288.191,384.175 C288.917,384.164 289.659,384.056 290.313,383.706 C289.225,381.816 287.198,379.71 284.631,377.931 M291.6,393.186 C291.903,391.859 292.157,390.522 292.343,389.179 C292.42,388.644 292.487,388.11 292.545,387.575 C292.39,388.523 292.055,390.55 291.6,393.186 M292.663,386.165 C292.748,384.912 292.77,383.656 292.69,382.409 C292.535,380.171 292.125,377.916 291.067,375.964 C290.539,374.996 289.855,374.117 289.024,373.404 C288.187,372.683 287.233,372.177 286.178,371.755 C284.115,370.862 281.93,370.233 279.7,370.058 C277.473,369.879 275.217,370.203 273.138,371.031 C271.185,371.805 269.431,373.035 267.885,374.483 C268.102,374.346 268.303,374.19 268.527,374.061 C273.832,371.033 280.761,373.445 285.477,376.712 C289.083,379.209 292.504,382.976 292.663,386.165 M260.367,401.707 L260.362,401.815 C260.256,404.527 262.319,407.807 266.327,411.305 C272.909,417.046 282,421.115 283.626,421.117 L283.677,421.114 C285.196,419.587 288.653,402.399 291.162,386.829 C291.295,386.009 291.018,384.995 290.421,383.901 C290.23,384.078 290.016,384.233 289.787,384.365 C289.316,384.628 288.797,384.782 288.274,384.9 C287.221,385.106 286.148,385.089 285.103,384.966 C283.002,384.718 280.994,384.02 279.122,383.081 C277.263,382.118 275.519,380.886 274.11,379.302 C272.881,377.939 271.88,376.235 271.624,374.427 C270.807,374.622 270.015,374.922 269.264,375.35 C260.479,380.371 258.41,394.059 260.34,401.601 L260.367,401.707 z M275.636,472.64 C278.929,472.075 282.22,471.092 284.564,469.41 C287.471,467.326 289.717,464.039 291.038,460.488 C291.521,458.907 291.781,457.511 291.803,456.578 C291.88,453.227 284.281,446.031 265.633,443.721 C264.01,444.284 262.32,445.525 260.753,447.103 C261.331,448.1 261.598,449.293 261.619,450.455 C261.654,451.9 261.337,453.341 260.762,454.675 C260.162,455.995 259.274,457.231 258.057,458.088 C257.006,458.859 255.665,459.259 254.423,459.121 C254.39,459.779 254.431,460.396 254.585,460.936 C255.754,465.029 266.369,471.227 275.636,472.64 M263.402,443.141 C261.558,443.313 259.75,443.661 258.083,444.424 C255.229,445.707 253.027,448.224 251.799,451.052 C251.205,452.464 251.071,454.046 251.272,455.582 C251.459,457.128 252.015,458.615 252.687,460.033 C252.797,460.261 252.922,460.481 253.042,460.705 C252.157,455.43 257.63,446.409 263.402,443.141 M260.493,447.366 C257.306,450.687 254.702,455.415 254.424,458.891 C255.569,458.55 256.544,457.973 257.322,457.198 C258.206,456.308 258.906,455.24 259.406,454.071 C259.932,452.914 260.271,451.666 260.463,450.391 C260.595,449.401 260.633,448.396 260.493,447.366 M298.828,501.626 C299.536,502.829 300.227,504.043 300.903,505.262 C301.387,506.142 301.862,507.025 302.331,507.911 C303.627,506.967 304.976,506.113 306.348,505.299 C307.756,504.494 309.188,503.734 310.677,503.068 C309.987,502.163 309.288,501.267 308.616,500.346 C307.837,499.277 307.069,498.197 306.314,497.107 C305.188,497.926 304.024,498.686 302.843,499.418 C301.534,500.202 300.202,500.948 298.828,501.626 M294.51,495.193 C295.711,496.679 296.782,498.223 297.749,499.821 C297.982,500.194 298.198,500.574 298.424,500.95 C299.653,500.039 300.925,499.197 302.22,498.394 C303.398,497.687 304.595,497.008 305.826,496.384 C305.557,495.985 305.277,495.596 305.017,495.189 C303.976,493.639 303.028,492.014 302.189,490.3 L294.51,495.193 z M303.194,489.66 C303.965,491.352 304.875,493.02 305.901,494.627 C306.172,495.07 306.463,495.501 306.744,495.938 C307.184,495.73 307.632,495.536 308.082,495.347 C306.344,492.854 304.948,490.701 304.091,489.088 L303.194,489.66 z M375.73,601.659 C373.138,609.435 366.344,615.7 371.567,619.49 C367.718,618.469 366.795,616.809 366.924,613.597 C367.289,604.481 367.549,593.726 350.896,585.368 C326.017,572.881 322.392,560.506 322.251,552.375 L322.056,552.5 L321.736,551.98 C321.351,551.354 320.767,550.471 320.092,549.451 C318.829,547.542 317.258,545.164 316.063,543.078 C313.865,538.891 311.354,533.897 308.694,528.611 C303.221,517.734 297.132,505.631 293.157,499.418 C290.7,499.242 287.383,499.269 284.976,499.522 C282.362,499.807 279.738,500.213 277.109,500.651 C271.852,501.527 266.571,502.523 261.226,503.254 C260.334,503.374 259.44,503.486 258.545,503.594 C255.353,505.143 249.133,509.151 246.908,511.003 C242.132,514.985 238.006,518.425 234.768,518.425 C233.595,518.425 231.395,518.462 228.493,518.513 C222.904,518.609 214.576,518.752 205.96,518.752 C199.435,518.752 192.746,518.67 186.955,518.423 C170.086,517.699 146.769,511.77 144.643,511.222 C128.581,509.264 103.05,502.505 87.78,498.463 C82.598,497.091 78.503,496.007 76.718,495.631 C67.208,493.628 57.044,487.139 57.044,474.934 C57.044,468.055 53.369,459.102 50.127,451.202 C47.848,445.653 45.881,440.862 45.553,437.587 C45.305,435.097 44.173,431.576 42.975,427.846 C40.697,420.758 38.116,412.722 39.665,406.523 C40.59,402.822 43.017,397.755 45.586,392.388 C48.709,385.865 52.986,376.931 51.98,374.365 C50.064,369.471 45.709,353.46 48.618,345.147 C51.58,336.686 87.804,316.47 91.671,315.064 C101.23,311.589 103.077,307.862 105.032,303.918 C106.863,300.221 108.757,296.397 116.047,293.221 C129.251,287.467 159.616,294.627 169.411,297.184 C165.239,289.619 161.058,282.14 156.868,274.898 L117.771,207.158 L78.958,139.245 C53.203,93.897 27.418,48.568 2,3.016 L3.907,1.867 C32.336,45.602 60.396,89.558 88.488,133.497 L130.445,199.513 L172.116,265.702 C179.06,276.756 186.2,287.927 193.371,299.078 L193.419,298.971 C198.623,301.25 236.085,304.16 250.661,298.746 C267.207,292.598 301.517,323.949 309.384,335.035 C315.233,343.277 315.283,353.29 309.533,364.792 C304.641,374.576 291.807,401.655 291.178,409.36 C290.331,419.733 289.219,423.599 286.601,425.263 C285.292,426.096 282.661,427.2 280.653,427.989 C284.005,431.81 291.045,440.067 294.178,445.506 C297.485,451.245 296.306,460.079 292.13,466.657 C292.214,466.816 292.298,466.972 292.382,467.133 C295.98,474.011 299.961,480.912 303.817,487.841 L304.568,487.362 L304.862,487.967 C307.515,493.404 317.937,506.697 327.133,518.425 C330.463,522.674 333.609,526.686 336.238,530.134 C338.348,532.899 339.909,535.43 341.048,537.278 C341.462,537.948 341.817,538.525 342.123,538.988 L342.459,539.498 L342.408,539.53 C370.121,546.649 377.328,573.566 377.696,590.308 C377.822,596.053 376.494,599.368 375.73,601.659 M334.437,531.935 C331.541,533.155 328.838,534.689 326.181,536.3 C323.545,537.94 320.953,539.656 318.553,541.684 C321.447,540.463 324.15,538.928 326.809,537.319 C329.446,535.68 332.038,533.966 334.437,531.935 M230.955,489.003 C229.634,490.229 228.244,491.42 226.43,491.93 C227.377,492.013 228.344,491.739 229.227,491.364 C230.111,490.972 230.936,490.465 231.696,489.887 C233.235,488.744 234.556,487.369 235.783,485.939 C236.985,484.485 238.091,482.963 239.067,481.361 C240.05,479.765 240.936,478.107 241.62,476.35 C239.207,479.228 237.012,482.184 234.648,484.984 C233.479,486.391 232.259,487.751 230.955,489.003 M164.174,441.047 C162.532,443.052 160.919,445.079 159.358,447.147 C157.795,449.217 156.277,451.32 154.81,453.468 C154.071,454.539 153.37,455.64 152.65,456.726 L151.594,458.381 C151.419,458.658 151.238,458.931 151.055,459.2 C150.865,459.461 150.707,459.773 150.434,459.934 C151.122,459.803 151.642,459.306 152.191,458.939 C152.731,458.539 153.233,458.104 153.745,457.678 C154.732,456.792 155.7,455.888 156.612,454.937 C158.439,453.037 160.138,451.032 161.724,448.939 C163.31,446.846 164.783,444.663 166.096,442.366 C166.756,441.221 167.349,440.027 167.897,438.809 C168.149,438.188 168.41,437.571 168.612,436.924 C168.806,436.281 169.007,435.609 168.981,434.927 C168.345,436.084 167.473,437.042 166.652,438.05 L164.174,441.047 z M156.23,432.218 C158.229,429.51 160.345,426.925 163.111,424.787 C159.738,425.83 156.856,428.189 154.452,430.734 C152.015,433.303 149.983,436.191 148.179,439.177 C146.383,442.171 144.809,445.279 143.459,448.476 C142.094,451.666 140.913,454.929 140.047,458.316 C142.031,455.436 143.782,452.47 145.519,449.514 L150.72,440.709 C152.473,437.805 154.27,434.947 156.23,432.218 M162.824,495.941 C163.217,493.751 163.415,491.536 163.437,489.317 C163.437,487.098 163.318,484.872 162.8,482.657 C162.084,484.807 161.591,486.938 161.126,489.065 C160.677,491.192 160.285,493.311 159.903,495.423 L158.784,501.741 C158.395,503.85 157.999,505.933 157.444,508.13 C159.091,506.539 160.162,504.469 161.022,502.397 C161.875,500.305 162.434,498.132 162.824,495.941 M244.141,425.939 C243.391,427.037 242.506,428.043 241.596,429.02 C239.751,430.957 237.739,432.758 235.664,434.493 C233.605,436.254 231.464,437.93 229.33,439.639 C227.184,441.334 225.031,443.03 222.896,444.818 C225.503,443.821 227.956,442.505 230.321,441.056 C232.694,439.614 234.945,437.973 237.098,436.194 C239.212,434.375 241.249,432.424 242.93,430.133 C243.776,428.999 244.524,427.774 245.1,426.464 C245.646,425.151 246.036,423.715 245.896,422.313 C245.539,423.665 244.907,424.847 244.141,425.939 M233.087,426.793 C235.147,424.904 237.255,423.083 239.427,421.361 C240.527,420.523 241.638,419.697 242.819,418.987 C243.996,418.269 245.23,417.65 246.638,417.367 C245.203,417.154 243.718,417.525 242.353,418.007 C240.984,418.521 239.682,419.184 238.447,419.934 C235.971,421.435 233.73,423.246 231.596,425.144 C229.49,427.077 227.487,429.111 225.641,431.279 C223.786,433.437 222.041,435.695 220.546,438.141 C222.74,436.303 224.822,434.395 226.892,432.485 C228.97,430.586 231.004,428.656 233.087,426.793 M176.46,396.129 C175.339,397.69 174.221,399.26 173.01,400.751 C171.801,402.244 170.579,403.728 168.981,404.877 C170.906,404.309 172.523,403.013 174.055,401.765 C175.563,400.463 176.961,399.052 178.271,397.572 C180.896,394.612 183.256,391.449 185.396,388.148 C187.537,384.847 189.471,381.414 191.146,377.848 C192.802,374.288 194.299,370.577 194.95,366.669 C193.142,370.162 191.127,373.445 189.116,376.752 C187.094,380.046 185.003,383.293 182.91,386.533 C180.798,389.759 178.683,392.983 176.46,396.129 M157.854,398.323 C157.066,396.42 156.768,394.25 157.01,392.117 C157.241,389.978 157.955,387.91 158.902,386.009 C160.813,382.186 163.502,378.935 166.295,375.91 C169.106,372.885 172.106,370.102 175.149,367.38 C178.199,364.662 181.301,362.018 184.563,359.497 C182.188,362.868 179.518,365.989 176.775,369.016 C174.037,372.048 171.215,374.981 168.469,377.93 C165.75,380.893 163.028,383.843 160.923,387.14 C159.89,388.793 158.97,390.522 158.439,392.398 C157.838,394.263 157.711,396.263 157.854,398.323" fill="#0B0B09"/>
  </g>
</svg>
